<svg id="Layer_1" data-name="Layer 1" xmlns="http://www.w3.org/2000/svg" width="8.08in" height="8.1in" viewBox="0 0 581.99 583"><defs><style>.cls-1{fill:#fff;fill-rule:evenodd;}</style></defs><path class="cls-1" d="M119.73,178.44l.17,3.24,17.44,128.25,45.54.19h5.24l29.24-.1,12.36-171.86c.39-6.39-1-7.32,4.27-7.77L247,310l80.14,0c4.63-22.55,6.36-49.49,9.78-72.44,3.7-24.78,22.86-163.1,23.05-181.53.15-13.84,0-27.8-.05-41.66L301.73,14c-1.53,29.28-4.21,59.06-6.32,88.34l-5.59,77.43c-.37,6.06,1.19,8.38-3.62,9.75L272.47,14l-80.79,0-3.94,57.07c-.13,2.66.28,7.63-1.41,8.88,1.42,8.33-5,82.14-6.4,103.36-.36,5.66.65,4.2-2.44,6.07-2.81-1.65-1.76,3.28-2.65-9.29-.25-3.56-.58-7.15-.85-10.72-1.58-21.08-9.77-148.16-11.53-154.86L104.65,14c0,45.09-1.33,40,4.44,84.95C112.5,125.45,116.49,151.9,119.73,178.44Z" transform="translate(-104.52 -13.5)"/><path class="cls-1" d="M522.07,596l3.15.07,7.82,0h10.45l3.41,0,6.5.11c1.55-1,.77-.19,1.15-2.13l0-41.51,0-3.34.06-217.41-51-.17-.35,115.34c-5.12-.31-3.32.66-7.14-11.43l-14.2-44.76c-3.33-10.15-6.3-19.53-9.5-29.81-2.51-8-6.49-23.06-9.66-29.35l-50.51,0-.42,264.56,51.26,0,.06-115.14c5.49-.26,5.5,5.8,7,10.57,6.86,22.15,29.38,89.27,33,104.54Z" transform="translate(-104.52 -13.5)"/><path class="cls-1" d="M585.29,67.49l9.7,0c11.74,0,13.5-1.36,18.73,3.23l.12,46.64c0,7.73,2,21.69-3.86,24.07H585.54l-.21-64.56,0-9.41ZM519.75,309.35h64.91l-.14-111.08c.53-4.09.07-1.84,1.39-3.33l6.41.17,27.08,82.64,1.48,4.94,8.72,26.5,56.9.1V308.2l0-40.95-34.33-93c24.82-15.42,27.25-23.46,27.26-59.17,0-23.13,3.52-62-6.34-80.37-12.31-23-35-20.68-66.52-20.68q-43.42,0-86.85,0Z" transform="translate(-104.52 -13.5)"/><path class="cls-1" d="M319.8,378.81c9.24-.05,21.2-2.2,22.63,5.15V524.65c0,10.44,2.15,23.49-5.91,23.49-15.95,0-19.94,1.88-19.94-9,.05-48.84-.78-108.26.33-157.29l2.88-3Zm-33.66-46.75c-33.63,9.5-28,45.58-28,73.62q-.12,51.21,0,102.42c0,31.33-6.35,68.31,18.07,83.08,12.12,7.32,27.16,4.84,45.86,4.84,9.92,0,44.2,1.31,51.38-.4,5.51-1.32,12.3-6.33,15.47-9.28,15.77-14.72,12-41.79,12-64.79s1.26-135.7-.32-153.16c-1.45-16-7.56-26-18.31-32.2-8.26-4.77-9.36-4.68-19.83-4.66C349,331.56,291.05,330.67,286.14,332.06Z" transform="translate(-104.52 -13.5)"/><path class="cls-1" d="M417.86,187.11C418,173,420.5,155,421.78,140.47c.68-7.7,1.33-15.39,2.08-23.11.38-4,.66-7.49.94-11.53.42-6-1-7.15,3.65-8.34l9.25,92.69c-2,2.61-17.22,1.33-20.6.72l.76-3.79ZM366,124.9c-.15,2.13.43,5.3-1.58,5.3,1.12,7.73-7,52.28-8.7,63.6-2.27,15.26-9.63,51-9,64-.88,16.56-.36,34.72-.34,51.64l56.65.07c4.84-.52,1.95.2,4.55-1.7L412,253l31.11-.46L448,310.12l60.93,0c5.66-36.5-9.35-115.48-14.91-151.77L477.65,49.91c-1-6.28-1.84-12.12-2.75-18.18-.46-3.15-.94-5.94-1.36-9.19-1.2-9.1-.38-7.74-3.45-8.51-13.77,0-79.45-1.63-87.35.81Z" transform="translate(-104.52 -13.5)"/><path class="cls-1" d="M178.42,393.11l-2,4.12-43.24,91.68c-6.9,15-14.19,31.24-21.62,45.6-6.5,12.55-6.6,11.45-6.6,27.39,0,11.33,0,22.67,0,34l142.76.14,0-55.15-76.32,0,45.42-96.63c7.56-16.45,15.19-32.3,23-48.47,6.13-12.77,7.93-11.63,7.92-28.36,0-10.07,1-26.63-.35-35.9l-142.12,0L105,386.59l76.35.11Z" transform="translate(-104.52 -13.5)"/><path class="cls-1" d="M567.19,596l10,.05,6.26-.07,102.71,0,0-55.15H625.49l-.42-47.64.43-3.39,46.22-.05c2.82-1.31,1.08.9,2-2.32l6.06-52.66-54.71-.06,0-48.1,60.79,0,.36-2.18v-3.12l-.09-48.95h-119Z" transform="translate(-104.52 -13.5)"/></svg>