<svg id="svg3960" xmlns="http://www.w3.org/2000/svg" width="1in" height="1in" viewBox="0 0 600 600.06"><defs><style>.orange{fill:#fa9c1e;}.gray{fill:#4a4c4e;}</style></defs><path id="path3961" class="orange" d="M296.7,0C229.94.43,163.93,24.23,112.07,66.09l56.67,65.78c47.82-37.74,112.25-53.11,172-41.23a214.26,214.26,0,0,1,90.47,41.23l56.66-65.78A299.43,299.43,0,0,0,296.7,0Z" transform="translate(0 0.03)"/><path id="path4052" class="gray" d="M93.63,82.25C33.92,138.34-1.08,219.88,0,302.12c0,85.37,39,169.23,103.65,224.7C163.46,579.1,244.76,605.74,324.14,599c86-6.41,167.65-52.34,218.12-122.14,49.12-66.33,68.37-153.8,52.06-234.91-12-62.09-44.54-119.64-90.84-162.41l-56.66,65.79c45.66,43,70.59,106.55,65.89,169.22a211.81,211.81,0,0,1-26.32,89L370.92,292,312.66,166.39l-.09,190.18L429.27,469.5c-52,40.4-123.36,53.8-186.58,35.89A211.58,211.58,0,0,1,171.38,470L288.87,356.57c-.21-61.83.72-128.58,0-190.38L230.52,292,114.06,404.44c-35.53-62-36.38-142.21-2.18-204.93a216.62,216.62,0,0,1,41.25-54.18L96.47,79.54Z" transform="translate(0 0.03)"/></svg>